HIERARCHY
ROOT Hips
{
  OFFSET 50.7751 83.8088 55.7295
  CHANNELS 6 Xposition Yposition Zposition Zrotation Xrotation Yrotation
  JOINT RightUpLeg
  {
    OFFSET -8.9458 -8.66707 0.101652
    CHANNELS 3 Zrotation Xrotation Yrotation
    JOINT RightLeg
    {
      OFFSET 0 -44.4227 1.3727
      CHANNELS 3 Zrotation Xrotation Yrotation
      JOINT RightFoot
      {
        OFFSET 0.253549 -42.0924 -1.46059
        CHANNELS 3 Zrotation Xrotation Yrotation
        JOINT RightToes
        {
          OFFSET 0.04 -4.41509 8.4991
          CHANNELS 3 Zrotation Xrotation Yrotation
          End Site
          {
            OFFSET -0.08 -0.137448 9.77979
          }
        }
      }
    }
  }
  JOINT Spine
  {
    OFFSET 0 11.8905 0
    CHANNELS 3 Zrotation Xrotation Yrotation
    JOINT Spine1
    {
      OFFSET 0 25.6574 0.127663
      CHANNELS 3 Zrotation Xrotation Yrotation
      JOINT HEad
      {
        OFFSET 0 8.73416 0.011341
        CHANNELS 3 Zrotation Xrotation Yrotation
        End Site
        {
          OFFSET -0.29 12.7742 2.51395
        }
      }
      JOINT LeftShoulder1
      {
        OFFSET 8.99 -0.362252 -0.22
        CHANNELS 3 Zrotation Xrotation Yrotation
        JOINT LeftArm
        {
          OFFSET 10.2827 -0.00338 0.322123
          CHANNELS 3 Zrotation Xrotation Yrotation
          JOINT LeftForeArm
          {
            OFFSET 32.7669 0.099144 -1.42434
            CHANNELS 3 Zrotation Xrotation Yrotation
            JOINT LeftHand
            {
              OFFSET 27.5643 0.085362 1.02216
              CHANNELS 3 Zrotation Xrotation Yrotation
              End Site
              {
                OFFSET 16.7443 -0.6 1.50291
              }
            }
          }
        }
      }
      JOINT RightShoulder
      {
        OFFSET -8.99 -0.362252 -0.22
        CHANNELS 3 Zrotation Xrotation Yrotation
        JOINT RightArm
        {
          OFFSET -10.2827 -0.00338 0.322123
          CHANNELS 3 Zrotation Xrotation Yrotation
          JOINT RightForeArm
          {
            OFFSET -32.8971 0.099144 -1.42434
            CHANNELS 3 Zrotation Xrotation Yrotation
            JOINT RightHand
            {
              OFFSET -27.4921 0.085362 1.02216
              CHANNELS 3 Zrotation Xrotation Yrotation
              End Site
              {
                OFFSET -16.6312 -0.6 1.50291
              }
            }
          }
        }
      }
    }
  }
  JOINT LeftUpLeg
  {
    OFFSET 8.9458 -8.66707 0.101652
    CHANNELS 3 Zrotation Xrotation Yrotation
    JOINT LeftLeg
    {
      OFFSET 0 -44.4227 1.3727
      CHANNELS 3 Zrotation Xrotation Yrotation
      JOINT LeftFoot
      {
        OFFSET -0.253549 -42.0924 -1.46059
        CHANNELS 3 Zrotation Xrotation Yrotation
        JOINT LeftToes
        {
          OFFSET -0.04 -4.41509 8.4991
          CHANNELS 3 Zrotation Xrotation Yrotation
          End Site
          {
            OFFSET 0.08 -0.047448 9.77979
          }
        }
      }
    }
  }
}
MOTION
Frames:	16
Frame Time:	0.0166667
50.7751 83.8088 55.7295 -4.08552 8.35295 -117.205 -24.0646 -35.6304 11.5941 29.9669 44.002 -43.0792 20.8545 33.4171 -7.47205 -33.2283 -31.3708 4.80439 -0.951372 12.583 -5.26816 -2.89479 24.9829 -10.9625 15.7257 -17.1714 -15.4778 3.53113e-031 6.36111e-015 -3.18055e-015 -66.0499 -2.33656 -82.9939 28.5472 19.487 -122.457 -7.89256 8.26822 25.9156 35.1543 -2.97732 -10.3114 63.4439 -41.5594 45.8779 -16.4649 19.7382 152.358 32.3805 -0.0199861 -36.872 34.5523 13.6744 -13.5284 -19.5575 30.0679 52.5995 24.3172 16.1412 -5.2201 65.2785 -47.4559 44.3529 
51.544 84.1457 55.3625 -4.0648 8.07379 -116.943 -24.804 -35.5078 10.1342 28.6324 43.662 -38.9189 25.212 35.2003 -9.49515 -35.4858 -33.6087 4.98521 -1.06765 12.681 -4.90774 -3.51896 25.1324 -10.0006 16.0015 -17.8462 -16.7549 3.18055e-015 -6.36111e-015 3.18055e-015 -63.8547 -1.33596 -81.0649 28.8826 16.937 -123.759 -8.52145 8.10113 26.488 35.6362 -3.18465 -10.7594 62.6992 -42.4712 45.2395 -15.4731 21.7023 151.805 29.0723 1.2954 -35.9545 34.8653 13.467 -13.4978 -19.3747 28.9939 50.6202 23.1388 16.3383 -5.00693 64.28 -47.6815 42.9697 
52.0616 84.8093 54.6438 -3.89194 7.78021 -116.241 -26.0031 -34.9142 7.98811 27.6868 43.1188 -33.5163 29.1106 35.8294 -11.1963 -36.8853 -35.4398 5.86644 -0.974079 12.5941 -4.82445 -3.76076 24.8993 -9.57902 15.8466 -17.9667 -17.8098 3.97569e-015 -8.74653e-015 9.54166e-015 -61.4948 -0.776285 -78.168 28.9464 14.1699 -125.205 -8.71104 8.02439 26.9552 35.6901 -3.25249 -10.9285 60.5397 -42.6446 43.8008 -14.6509 21.5234 151.525 27.1688 2.08987 -35.1488 35.0861 13.1678 -13.293 -18.383 27.7118 47.3644 21.1231 16.5698 -4.61478 61.4966 -47.868 39.6426 
52.3611 85.7098 53.6178 -3.59371 7.42824 -115 -27.4897 -33.7617 5.49121 27.0332 42.53 -28.0191 31.2902 35.1016 -11.8707 -37.1434 -36.5578 7.36382 -0.732231 12.3158 -4.93195 -3.64094 24.3018 -9.60372 15.3534 -17.6667 -18.9023 2.38542e-015 0 -3.18055e-015 -59.2278 -0.258966 -74.5106 28.6236 11.6531 -126.548 -8.24582 8.09653 27.2113 35.3721 -3.23235 -10.952 57.2342 -42.6163 41.8707 -14.1033 19.072 151.939 27.3052 2.10018 -34.9618 35.1333 12.5899 -13.174 -16.6622 26.3893 43.4696 18.4112 16.9367 -4.08771 57.2789 -47.7871 34.8404 
52.5024 86.7853 52.3174 -3.21133 6.92006 -113.216 -29.0083 -32.0187 3.29701 26.4153 41.7844 -24.3339 30.5553 33.5977 -11.1629 -36.6693 -36.844 8.65025 -0.33653 11.8825 -5.14876 -3.30869 23.3993 -9.85168 14.6972 -17.1437 -20.2914 -7.95139e-016 -5.56597e-015 -3.18055e-015 -57.3142 0.447584 -70.4807 27.8609 9.78917 -127.608 -7.25231 8.30271 27.1298 34.7452 -3.17214 -10.9427 53.2026 -43.2028 39.724 -13.7931 14.832 153.105 29.3433 1.37274 -35.4053 35.0741 11.614 -13.4133 -14.6962 24.9545 39.6903 15.4561 17.8208 -3.56686 52.3967 -47.3481 29.342 
52.569 87.9212 50.8482 -2.77287 6.16743 -111.011 -30.4031 -29.8343 2.05643 25.7266 40.708 -23.9457 26.7348 31.614 -9.2354 -35.3191 -35.6693 8.96133 0.214289 11.3414 -5.3853 -2.96358 22.2743 -10.1148 14.0514 -16.587 -22.0941 -1.59028e-015 -3.18055e-015 -3.18055e-015 -55.9233 1.27084 -66.5069 26.7142 8.75858 -128.322 -6.17028 8.54903 26.6563 33.756 -3.04848 -10.8451 49.0781 -45.5554 37.4684 -13.5476 10.1695 154.648 32.1665 0.341128 -35.9631 34.9717 9.97457 -14.0106 -13.1413 23.7869 36.4748 12.7072 19.3743 -3.13098 47.5995 -46.6452 23.831 
52.6096 89.006 49.3229 -2.28684 5.14293 -108.524 -31.6331 -27.3486 2.14711 24.9971 39.1408 -26.7119 21.0037 28.666 -6.65328 -31.5356 -31.7625 8.775 0.9016 10.7462 -5.57684 -2.73031 21.0476 -10.264 13.4942 -16.1698 -24.3358 -3.18055e-015 -4.37326e-015 -3.18055e-015 -55.0404 2.00257 -63.0152 25.3034 8.53467 -128.679 -5.38049 8.74829 25.843 32.2137 -2.79165 -10.4892 45.5621 -50.9352 35.1301 -13.2218 7.21499 155.902 33.9588 -0.312844 -36.2425 34.8057 7.46511 -14.581 -12.3233 23.4158 33.5941 10.4684 21.5933 -2.81675 43.6973 -46.0927 18.8792 
52.625 89.9368 47.8294 -1.77424 3.91805 -105.866 -32.6847 -24.5732 3.60806 24.2709 36.9893 -30.9196 15.3815 24.3602 -4.27073 -24.2115 -24.4004 8.78379 1.64348 10.1569 -5.662 -2.60439 19.8776 -10.218 12.9786 -16.0358 -27.045 -7.95139e-016 -1.98785e-015 9.54166e-015 -54.5337 2.51684 -60.4519 23.777 9.00472 -128.652 -4.89326 8.89452 24.7585 30.0002 -2.40715 -9.86258 43.0104 -60.0305 32.9945 -12.9669 7.90169 156.048 33.2579 -0.129991 -36.3579 34.456 4.07619 -14.5284 -12.0592 24.3059 30.3368 8.68639 24.3947 -2.59181 41.5771 -46.429 15.0017 
52.5968 90.6328 46.4199 -1.31722 2.64509 -103.146 -33.489 -21.4117 6.21572 23.4792 34.2519 -34.578 11.3867 19.2949 -2.67013 -14.9585 -14.906 8.10243 2.28365 9.64137 -5.57455 -2.4988 18.9269 -9.89661 12.3863 -16.2462 -30.2418 1.59028e-015 7.55382e-015 -3.18055e-015 -54.3001 2.85043 -59.1968 22.3219 10.0143 -128.233 -4.44535 9.03277 23.4914 27.2979 -2.02114 -9.2498 40.9129 -71.7199 31.6302 -13.3409 12.3117 154.115 30.0811 0.795871 -36.5915 33.7823 0.052365 -13.4844 -11.8717 26.7075 26.1034 6.96268 27.482 -2.31832 41.7211 -48.1488 12.5969 
52.5301 91.0606 45.1225 -1.08215 1.48861 -100.566 -33.9404 -17.8212 9.56977 22.4587 31.0827 -36.6437 9.3167 14.6044 -1.83157 -6.59162 -6.33483 5.94466 2.66588 9.26827 -5.27543 -2.34622 18.3112 -9.23843 11.6043 -16.7116 -33.8141 1.59028e-015 2.78299e-015 -3.18055e-015 -54.3117 3.17778 -59.3228 21.1906 11.2516 -127.524 -3.84359 9.18279 22.2699 24.3022 -1.69547 -8.80852 34.368 -82.2553 27.5539 -15.1394 17.7675 149.016 25.6242 2.00672 -37.2553 32.7713 -4.10553 -11.7127 -11.5327 30.4508 21.1565 4.95945 30.2501 -1.84273 43.7781 -50.8652 11.817 
52.4781 91.238 43.9669 -1.26185 0.545975 -98.5272 -33.9989 -14.0529 13.1208 21.1166 27.8858 -37.1865 8.72066 10.9565 -1.46336 -0.96425 -0.902368 3.20551 2.7455 9.07982 -4.78323 -2.17244 18.0536 -8.23988 10.6025 -17.1577 -37.3902 -1.98626e-031 -3.57812e-015 -3.18055e-015 -54.588 3.65551 -60.4266 20.6695 12.2204 -126.78 -3.19654 9.31269 21.4368 20.7419 -1.3031 -8.10515 -14.8482 -86.3757 -17.157 -18.7671 21.531 139.561 20.9564 3.18471 -38.5377 31.6195 -7.73865 -10.0087 -11.6042 34.9558 16.9926 2.92367 31.9258 -1.22213 46.518 -53.4946 12.1875 
52.526 91.1863 43.03 -1.94957 -0.195036 -97.5999 -33.8007 -10.7624 16.0719 19.4422 25.3124 -36.6044 8.92256 8.5037 -1.3225 1.38175 1.19022 1.24684 2.47426 9.05855 -4.12264 -2.10214 18.0737 -6.93515 9.49114 -17.2312 -40.3916 1.59028e-015 2.78299e-015 -3.18055e-015 -55.176 4.24884 -61.8056 20.9749 12.4692 -126.321 -2.88731 9.36373 21.2785 16.098 -0.72086 -6.4147 -32.0229 -81.5598 -28.6526 -23.2179 23.9803 124.21 16.8076 4.24372 -40.0543 30.5877 -10.309 -8.99429 -13.2743 39.6655 15.6039 1.56779 31.8244 -0.7502 48.1847 -55.0289 12.4687 
52.7224 91.0079 42.3226 -3.02642 -0.654822 -98.2139 -33.3612 -8.60086 17.3631 17.2932 23.7575 -34.7278 9.17211 7.83228 -1.30878 0.628404 0.511527 0.666739 2.1418 9.15505 -3.36225 -2.17715 18.2597 -5.37436 8.45228 -16.7475 -42.3037 7.95139e-016 5.96354e-016 -0 -56.1197 4.77446 -62.8681 22.136 11.8396 -126.376 -3.29932 9.28168 21.8795 10.2268 -0.0716829 -3.3742 -12.4871 -56.5459 -2.24993 -24.3326 12.45 91.8372 16.3286 4.26653 -40.8688 29.9913 -11.4254 -8.64315 -17.2693 43.7242 17.8597 1.18171 29.8837 -0.584014 47.3231 -54.9826 11.315 
53.0521 90.7982 41.8276 -4.2054 -0.7156 -100.383 -32.644 -7.939 16.094 14.4569 23.2491 -30.9238 9.27004 9.7923 -1.46674 -2.80655 -2.52154 1.21301 1.91477 9.32025 -2.57088 -2.31001 18.5275 -3.70968 7.55724 -15.869 -42.9173 -7.95139e-016 -7.95139e-016 1.59028e-015 -57.392 5.04252 -63.3658 23.9154 10.5066 -126.976 -4.48126 9.04543 23.0874 3.44973 0.325534 0.732725 -10.7722 -21.4969 5.71968 -24.411 -5.86694 50.1928 20.397 3.47522 -37.9898 29.9147 -11.1043 -8.53644 -23.0561 46.4069 22.8878 1.2469 26.6855 -0.549954 43.9679 -53.4452 8.50213 
53.4278 90.6383 41.4556 -5.10884 -0.347785 -103.6 -31.5794 -8.6917 12.2419 10.8555 23.471 -25.2374 9.97355 14.1861 -1.92582 -8.15631 -7.39223 2.32365 1.81408 9.50996 -1.87359 -2.31439 18.8149 -2.26956 6.76131 -15.0548 -42.3187 -7.95139e-016 7.95139e-016 -0 -58.8599 4.91954 -63.3368 25.8416 8.8915 -127.993 -6.06075 8.69343 24.6323 -3.59769 0.221371 4.99959 -10.9393 -3.31834 9.22887 -19.5659 -11.2971 24.788 25.7209 2.99759 -33.2329 30.2234 -9.72519 -8.42008 -29.0638 47.2855 28.85 1.1711 23.4256 -0.473464 39.9198 -51.1436 5.37105 
53.7311 90.5907 41.0758 -5.39692 0.307938 -107.015 -30.1554 -10.4028 7.10697 6.86857 23.9269 -18.9604 12.1619 19.4846 -2.87232 -14.108 -13.0342 3.55556 1.82445 9.6648 -1.46201 -2.02426 19.0469 -1.49486 6.16856 -14.7894 -40.678 -1.59028e-015 1.19271e-015 -3.18055e-015 -60.3714 4.34498 -62.9669 27.3914 7.5873 -129.223 -7.48487 8.31928 26.2731 -9.70843 -0.269735 8.0895 -8.72456 1.06942 12.2139 -13.9843 -11.2999 14.5894 31.6457 2.82936 -28.452 30.7006 -7.92496 -8.38821 -33.7536 46.393 34.2618 0.908311 21.2509 -0.37175 37.2553 -49.2452 3.61069 
